<mxfile host="app.diagrams.net" agent="Mozilla/5.0 (Windows NT 10.0; Win64; x64) AppleWebKit/537.36 (KHTML, like Gecko) Chrome/138.0.0.0 Safari/537.36" version="28.0.6">
  <diagram name="Page-1" id="LAAqzWsz8ldX0x7vCpaQ">
    <mxGraphModel dx="1678" dy="874" grid="1" gridSize="10" guides="1" tooltips="1" connect="1" arrows="1" fold="1" page="1" pageScale="1" pageWidth="827" pageHeight="1169" math="0" shadow="0">
      <root>
        <mxCell id="0" />
        <mxCell id="1" parent="0" />
        <mxCell id="BDhauerVRzulrDaXgORS-1" value="" style="whiteSpace=wrap;html=1;aspect=fixed;" vertex="1" parent="1">
          <mxGeometry x="160" y="100" width="540" height="540" as="geometry" />
        </mxCell>
        <mxCell id="BDhauerVRzulrDaXgORS-2" value="" style="rounded=0;whiteSpace=wrap;html=1;" vertex="1" parent="1">
          <mxGeometry x="200" y="130" width="460" height="50" as="geometry" />
        </mxCell>
        <mxCell id="BDhauerVRzulrDaXgORS-3" value="" style="rounded=0;whiteSpace=wrap;html=1;" vertex="1" parent="1">
          <mxGeometry x="200" y="560" width="460" height="50" as="geometry" />
        </mxCell>
        <mxCell id="BDhauerVRzulrDaXgORS-4" value="" style="whiteSpace=wrap;html=1;aspect=fixed;" vertex="1" parent="1">
          <mxGeometry x="200" y="220" width="80" height="80" as="geometry" />
        </mxCell>
        <mxCell id="BDhauerVRzulrDaXgORS-5" value="" style="whiteSpace=wrap;html=1;aspect=fixed;" vertex="1" parent="1">
          <mxGeometry x="200" y="330" width="80" height="80" as="geometry" />
        </mxCell>
        <mxCell id="BDhauerVRzulrDaXgORS-6" value="" style="whiteSpace=wrap;html=1;aspect=fixed;" vertex="1" parent="1">
          <mxGeometry x="200" y="440" width="80" height="80" as="geometry" />
        </mxCell>
        <mxCell id="BDhauerVRzulrDaXgORS-7" value="" style="rounded=0;whiteSpace=wrap;html=1;" vertex="1" parent="1">
          <mxGeometry x="330" y="220" width="320" height="80" as="geometry" />
        </mxCell>
        <mxCell id="BDhauerVRzulrDaXgORS-8" value="" style="rounded=0;whiteSpace=wrap;html=1;" vertex="1" parent="1">
          <mxGeometry x="330" y="330" width="320" height="80" as="geometry" />
        </mxCell>
        <mxCell id="BDhauerVRzulrDaXgORS-9" value="" style="rounded=0;whiteSpace=wrap;html=1;" vertex="1" parent="1">
          <mxGeometry x="330" y="440" width="320" height="80" as="geometry" />
        </mxCell>
        <mxCell id="BDhauerVRzulrDaXgORS-10" value="" style="rounded=0;whiteSpace=wrap;html=1;" vertex="1" parent="1">
          <mxGeometry x="380" y="530" width="250" height="20" as="geometry" />
        </mxCell>
      </root>
    </mxGraphModel>
  </diagram>
</mxfile>
